<svg width="169" height="57" viewBox="0 0 169 57" fill="none" xmlns="http://www.w3.org/2000/svg">
<path d="M2.64358 15.0001H0V34.0927H2.64358V27.0095C2.64358 25.8112 2.94163 24.8659 3.53774 24.2002C4.13384 23.5345 4.95024 23.1883 5.96102 23.1883C6.82926 23.1883 7.55495 23.5079 8.13809 24.1203C8.72123 24.7461 9.01929 25.5316 9.01929 26.4769V34.106H11.6758V26.4769C11.6758 24.7195 11.1964 23.3348 10.2374 22.2963C9.27846 21.2578 8.02146 20.7385 6.49233 20.7385C6.05173 20.7385 5.61114 20.7918 5.1835 20.9116C4.7429 21.0314 4.39301 21.1646 4.10792 21.311C3.82283 21.4575 3.5507 21.6172 3.30448 21.8036C3.05826 21.99 2.8898 22.1232 2.81205 22.2031C2.7343 22.2829 2.6695 22.3362 2.64358 22.3761V15.0001Z" fill="#F0145A"/>
<path d="M17.5854 15H14.8601V34.0767H17.5854V15Z" fill="white"/>
<path d="M33.6594 28.4897L33.7957 27.1271C33.7957 25.3011 33.1961 23.775 31.9698 22.5486C30.7434 21.3223 29.2173 20.7227 27.3914 20.7227C25.5654 20.7227 23.9848 21.3768 22.6767 22.6849C21.3686 23.993 20.7145 25.5464 20.7145 27.3996C20.7145 29.3073 21.3958 30.9424 22.7312 32.305C24.0666 33.6677 25.6745 34.349 27.5276 34.349C28.2362 34.349 28.8903 34.24 29.5443 34.0492C30.1984 33.8312 30.7434 33.6131 31.125 33.3951C31.5337 33.1499 31.9425 32.8773 32.2968 32.5776C32.6511 32.2778 32.8964 32.0598 33.0054 31.9235C33.1144 31.7872 33.1961 31.7055 33.2506 31.6237L31.4792 29.8523L31.0705 30.3701C30.7979 30.6971 30.3346 31.0242 29.6806 31.3784C28.9993 31.7327 28.2907 31.8962 27.5276 31.8962C26.4648 31.8962 25.5654 31.5692 24.8024 30.8879C24.0393 30.2066 23.576 29.4163 23.4398 28.4897H33.6594ZM27.3914 23.0392C28.3997 23.0392 29.2173 23.339 29.8986 23.9113C30.5527 24.5108 30.9614 25.2466 31.125 26.1732H23.5488C23.794 25.2466 24.2301 24.5108 24.9114 23.9113C25.5654 23.339 26.4103 23.0392 27.3914 23.0392Z" fill="white"/>
<path d="M46.3695 33.2861C46.3695 34.4852 46.0153 35.4663 45.2794 36.2294C44.5709 36.9652 43.6715 37.3467 42.5542 37.3467C42.0636 37.3467 41.5731 37.265 41.1098 37.1287C40.6465 36.9924 40.2922 36.8289 39.9925 36.6382C39.6927 36.4474 39.4202 36.2566 39.1476 36.0114C38.9024 35.7661 38.7388 35.6026 38.6571 35.5208C38.5753 35.4391 38.5208 35.3573 38.4663 35.3028L36.6949 37.0742L36.9129 37.3467C37.0492 37.5375 37.2945 37.7828 37.6215 38.0553C37.9485 38.3006 38.3301 38.5731 38.7661 38.8456C39.2021 39.0909 39.7472 39.3089 40.4285 39.4997C41.1098 39.6904 41.8184 39.7994 42.5542 39.7994C44.4074 39.7994 45.9335 39.1726 47.2144 37.919C48.468 36.6382 49.0948 35.112 49.0948 33.2589V20.9953H46.3695V22.3579L45.9062 21.9491C45.6065 21.6766 45.1432 21.404 44.4891 21.1315C43.8351 20.859 43.1265 20.7227 42.4179 20.7227C40.7555 20.7227 39.3384 21.3495 38.112 22.6304C36.8857 23.9113 36.2861 25.4374 36.2861 27.2633C36.2861 29.0892 36.8857 30.6154 38.112 31.8962C39.3384 33.1771 40.7555 33.8039 42.4179 33.8039C42.8812 33.8039 43.3173 33.7494 43.7806 33.6404C44.2166 33.5041 44.5709 33.3679 44.8706 33.2316C45.1704 33.0953 45.443 32.9318 45.6882 32.7411C45.9335 32.5503 46.1243 32.414 46.1788 32.3595L46.3695 32.1688V33.2861ZM39.0114 27.2633C39.0114 26.1187 39.3657 25.1649 40.1015 24.3746C40.8373 23.5842 41.7094 23.1754 42.6905 23.1754C43.6715 23.1754 44.5436 23.5842 45.2794 24.3746C45.988 25.1649 46.3695 26.1187 46.3695 27.2633C46.3695 28.4079 45.988 29.3618 45.2794 30.1521C44.5436 30.9424 43.6715 31.3512 42.6905 31.3512C41.7094 31.3512 40.8373 30.9424 40.1015 30.1521C39.3657 29.3618 39.0114 28.4079 39.0114 27.2633Z" fill="white"/>
<path d="M63.3195 34.0764V25.6282C63.3195 24.2383 62.8017 23.0664 61.7934 22.1399C60.785 21.186 59.4769 20.7227 57.869 20.7227C57.2422 20.7227 56.6154 20.8045 56.0158 20.968C55.4163 21.1588 54.9257 21.3495 54.5715 21.5676C54.2172 21.7856 53.8629 22.0308 53.5359 22.3306C53.2088 22.6031 53.0181 22.7939 52.9091 22.9029C52.8273 23.0119 52.7455 23.0937 52.691 23.1754L54.4624 24.9469L54.8167 24.4836C55.0347 24.1838 55.4163 23.9113 55.9886 23.6115C56.5609 23.3117 57.1877 23.1754 57.869 23.1754C58.6593 23.1754 59.3134 23.4207 59.8312 23.884C60.349 24.3473 60.5942 24.9469 60.5942 25.6282L55.8251 26.4457C54.6532 26.6365 53.6994 27.0998 53.0453 27.8356C52.364 28.5714 52.0097 29.4708 52.0097 30.5336C52.0097 31.542 52.4458 32.414 53.3178 33.1771C54.2172 33.9674 55.3073 34.349 56.6426 34.349C57.1059 34.349 57.542 34.2945 57.978 34.1582C58.4413 34.0492 58.7956 33.9129 59.0954 33.7767C59.3951 33.6404 59.6677 33.4769 59.9129 33.2861C60.1582 33.0954 60.3217 32.9591 60.4307 32.9046C60.5125 32.8228 60.567 32.7411 60.5942 32.7138V34.0764H63.3195ZM57.0514 31.8962C56.3429 31.8962 55.7706 31.7327 55.3618 31.4057C54.9257 31.0787 54.735 30.6971 54.735 30.2611C54.735 29.7978 54.8712 29.389 55.171 29.0892C55.4708 28.7895 55.8796 28.5714 56.3701 28.4897L60.5942 27.8084V28.0809C60.5942 29.3073 60.2945 30.2338 59.6677 30.9152C59.0409 31.5692 58.1688 31.8962 57.0514 31.8962Z" fill="white"/>
<path d="M69.3333 15H66.608V34.0767H69.3333V15Z" fill="white"/>
<path d="M0 43.3298H0.852878V46.3202H2.70078V47.0151H0V43.3298Z" fill="white"/>
<path d="M8.26752 46.2254H6.5565L6.23009 47.0151H5.35615L6.99873 43.3298H7.84108L9.48893 47.0151H8.59393L8.26752 46.2254ZM7.99902 45.5779L7.41464 44.1669L6.83026 45.5779H7.99902Z" fill="white"/>
<path d="M17.8731 43.3298L16.6675 47.0151H15.7515L14.9407 44.5197L14.1036 47.0151H13.1928L11.982 43.3298H12.8664L13.6982 45.9201L14.5669 43.3298H15.3566L16.199 45.9411L17.0571 43.3298H17.8731Z" fill="white"/>
<path d="M26.9457 47.0783C26.5702 47.0783 26.2297 46.9976 25.9244 46.8361C25.6225 46.6712 25.3838 46.4448 25.2084 46.157C25.0364 45.8657 24.9504 45.5375 24.9504 45.1725C24.9504 44.8075 25.0364 44.4811 25.2084 44.1933C25.3838 43.9019 25.6225 43.6756 25.9244 43.5141C26.2297 43.3491 26.5719 43.2667 26.951 43.2667C27.2704 43.2667 27.5582 43.3228 27.8144 43.4351C28.0741 43.5474 28.2917 43.7089 28.4672 43.9195L27.9197 44.4249C27.6705 44.1371 27.3616 43.9932 26.9931 43.9932C26.7649 43.9932 26.5614 44.0441 26.3824 44.1459C26.2034 44.2441 26.063 44.3828 25.9612 44.5618C25.8629 44.7408 25.8138 44.9443 25.8138 45.1725C25.8138 45.4006 25.8629 45.6042 25.9612 45.7832C26.063 45.9622 26.2034 46.1026 26.3824 46.2044C26.5614 46.3026 26.7649 46.3518 26.9931 46.3518C27.3616 46.3518 27.6705 46.2061 27.9197 45.9148L28.4672 46.4202C28.2917 46.6343 28.0741 46.7975 27.8144 46.9098C27.5547 47.0221 27.2651 47.0783 26.9457 47.0783Z" fill="white"/>
<path d="M33.3831 47.0783C33.0005 47.0783 32.6548 46.9958 32.3459 46.8309C32.0406 46.6659 31.8002 46.4395 31.6247 46.1517C31.4527 45.8604 31.3667 45.534 31.3667 45.1725C31.3667 44.811 31.4527 44.4863 31.6247 44.1985C31.8002 43.9072 32.0406 43.6791 32.3459 43.5141C32.6548 43.3491 33.0005 43.2667 33.3831 43.2667C33.7657 43.2667 34.1096 43.3491 34.415 43.5141C34.7203 43.6791 34.9607 43.9072 35.1362 44.1985C35.3117 44.4863 35.3995 44.811 35.3995 45.1725C35.3995 45.534 35.3117 45.8604 35.1362 46.1517C34.9607 46.4395 34.7203 46.6659 34.415 46.8309C34.1096 46.9958 33.7657 47.0783 33.3831 47.0783ZM33.3831 46.3518C33.6007 46.3518 33.7972 46.3026 33.9727 46.2044C34.1482 46.1026 34.2851 45.9622 34.3834 45.7832C34.4852 45.6042 34.5361 45.4006 34.5361 45.1725C34.5361 44.9443 34.4852 44.7408 34.3834 44.5618C34.2851 44.3828 34.1482 44.2441 33.9727 44.1459C33.7972 44.0441 33.6007 43.9932 33.3831 43.9932C33.1655 43.9932 32.9689 44.0441 32.7934 44.1459C32.618 44.2441 32.4793 44.3828 32.3775 44.5618C32.2793 44.7408 32.2301 44.9443 32.2301 45.1725C32.2301 45.4006 32.2793 45.6042 32.3775 45.7832C32.4793 45.9622 32.618 46.1026 32.7934 46.2044C32.9689 46.3026 33.1655 46.3518 33.3831 46.3518Z" fill="white"/>
<path d="M42.0264 47.0151L42.0211 44.804L40.9366 46.6255H40.5523L39.473 44.8513V47.0151H38.6728V43.3298H39.3782L40.7576 45.62L42.1159 43.3298H42.8161L42.8266 47.0151H42.0264Z" fill="white"/>
<path d="M47.9285 43.3298C48.2549 43.3298 48.5374 43.3842 48.7761 43.493C49.0183 43.6019 49.2043 43.7563 49.3342 43.9563C49.464 44.1564 49.529 44.3933 49.529 44.6671C49.529 44.9373 49.464 45.1742 49.3342 45.3778C49.2043 45.5779 49.0183 45.7323 48.7761 45.8411C48.5374 45.9464 48.2549 45.999 47.9285 45.999H47.1862V47.0151H46.3333V43.3298H47.9285ZM47.8811 45.3041C48.1373 45.3041 48.3321 45.2497 48.4655 45.1409C48.5989 45.0286 48.6656 44.8706 48.6656 44.6671C48.6656 44.46 48.5989 44.3021 48.4655 44.1933C48.3321 44.0809 48.1373 44.0248 47.8811 44.0248H47.1862V45.3041H47.8811Z" fill="white"/>
<path d="M55.0121 46.2254H53.3011L52.9747 47.0151H52.1008L53.7433 43.3298H54.5857L56.2335 47.0151H55.3385L55.0121 46.2254ZM54.7436 45.5779L54.1592 44.1669L53.5749 45.5779H54.7436Z" fill="white"/>
<path d="M62.6281 43.3298V47.0151H61.9279L60.0906 44.7776V47.0151H59.2482V43.3298H59.9537L61.7858 45.5673V43.3298H62.6281Z" fill="white"/>
<path d="M67.9013 45.7095V47.0151H67.0485V45.6989L65.6217 43.3298H66.5273L67.5117 44.9672L68.4963 43.3298H69.3333L67.9013 45.7095Z" fill="white"/>
<path fill-rule="evenodd" clip-rule="evenodd" d="M81.7281 15H84.9504L76.5556 41H73.3333L81.7281 15Z" fill="#F0145A"/>
<path d="M93.7504 34.1C92.897 34.1 92.077 33.98 91.2904 33.74C90.517 33.4867 89.9104 33.1733 89.4704 32.8L90.1104 31.68C90.5504 32.0267 91.1037 32.3133 91.7704 32.54C92.437 32.7533 93.1304 32.86 93.8504 32.86C94.8104 32.86 95.517 32.7133 95.9704 32.42C96.437 32.1133 96.6704 31.6867 96.6704 31.14C96.6704 30.7533 96.5437 30.4533 96.2904 30.24C96.037 30.0133 95.717 29.8467 95.3304 29.74C94.9437 29.62 94.4304 29.5067 93.7904 29.4C92.937 29.24 92.2504 29.08 91.7304 28.92C91.2104 28.7467 90.7637 28.46 90.3904 28.06C90.0304 27.66 89.8504 27.1067 89.8504 26.4C89.8504 25.52 90.217 24.8 90.9504 24.24C91.6837 23.68 92.7037 23.4 94.0104 23.4C94.6904 23.4 95.3704 23.4933 96.0504 23.68C96.7304 23.8533 97.2904 24.0867 97.7304 24.38L97.1104 25.52C96.2437 24.92 95.2104 24.62 94.0104 24.62C93.1037 24.62 92.417 24.78 91.9504 25.1C91.497 25.42 91.2704 25.84 91.2704 26.36C91.2704 26.76 91.397 27.08 91.6504 27.32C91.917 27.56 92.2437 27.74 92.6304 27.86C93.017 27.9667 93.5504 28.08 94.2304 28.2C95.0704 28.36 95.7437 28.52 96.2504 28.68C96.757 28.84 97.1904 29.1133 97.5504 29.5C97.9104 29.8867 98.0904 30.42 98.0904 31.1C98.0904 32.02 97.7037 32.7533 96.9304 33.3C96.1704 33.8333 95.1104 34.1 93.7504 34.1ZM109.876 29.18H101.076C101.156 30.2733 101.576 31.16 102.336 31.84C103.096 32.5067 104.056 32.84 105.216 32.84C105.869 32.84 106.469 32.7267 107.016 32.5C107.562 32.26 108.036 31.9133 108.436 31.46L109.236 32.38C108.769 32.94 108.182 33.3667 107.476 33.66C106.782 33.9533 106.016 34.1 105.176 34.1C104.096 34.1 103.136 33.8733 102.296 33.42C101.469 32.9533 100.822 32.3133 100.356 31.5C99.8888 30.6867 99.6555 29.7667 99.6555 28.74C99.6555 27.7133 99.8755 26.7933 100.316 25.98C100.769 25.1667 101.382 24.5333 102.156 24.08C102.942 23.6267 103.822 23.4 104.796 23.4C105.769 23.4 106.642 23.6267 107.416 24.08C108.189 24.5333 108.796 25.1667 109.236 25.98C109.676 26.78 109.896 27.7 109.896 28.74L109.876 29.18ZM104.796 24.62C103.782 24.62 102.929 24.9467 102.236 25.6C101.556 26.24 101.169 27.08 101.076 28.12H108.536C108.442 27.08 108.049 26.24 107.356 25.6C106.676 24.9467 105.822 24.62 104.796 24.62ZM114.146 25.54C114.479 24.8333 114.972 24.3 115.626 23.94C116.292 23.58 117.112 23.4 118.086 23.4V24.78L117.746 24.76C116.639 24.76 115.772 25.1 115.146 25.78C114.519 26.46 114.206 27.4133 114.206 28.64V34H112.786V23.48H114.146V25.54ZM129.946 23.48L125.266 34H123.806L119.146 23.48H120.626L124.566 32.44L128.546 23.48H129.946ZM131.946 23.48H133.366V34H131.946V23.48ZM132.666 21.18C132.373 21.18 132.126 21.08 131.926 20.88C131.726 20.68 131.626 20.44 131.626 20.16C131.626 19.8933 131.726 19.66 131.926 19.46C132.126 19.26 132.373 19.16 132.666 19.16C132.959 19.16 133.206 19.26 133.406 19.46C133.606 19.6467 133.706 19.8733 133.706 20.14C133.706 20.4333 133.606 20.68 133.406 20.88C133.206 21.08 132.959 21.18 132.666 21.18ZM141.677 34.1C140.637 34.1 139.704 33.8733 138.877 33.42C138.064 32.9667 137.424 32.3333 136.957 31.52C136.49 30.6933 136.257 29.7667 136.257 28.74C136.257 27.7133 136.49 26.7933 136.957 25.98C137.424 25.1667 138.064 24.5333 138.877 24.08C139.704 23.6267 140.637 23.4 141.677 23.4C142.584 23.4 143.39 23.58 144.097 23.94C144.817 24.2867 145.384 24.8 145.797 25.48L144.737 26.2C144.39 25.68 143.95 25.2933 143.417 25.04C142.884 24.7733 142.304 24.64 141.677 24.64C140.917 24.64 140.23 24.8133 139.617 25.16C139.017 25.4933 138.544 25.9733 138.197 26.6C137.864 27.2267 137.697 27.94 137.697 28.74C137.697 29.5533 137.864 30.2733 138.197 30.9C138.544 31.5133 139.017 31.9933 139.617 32.34C140.23 32.6733 140.917 32.84 141.677 32.84C142.304 32.84 142.884 32.7133 143.417 32.46C143.95 32.2067 144.39 31.82 144.737 31.3L145.797 32.02C145.384 32.7 144.817 33.22 144.097 33.58C143.377 33.9267 142.57 34.1 141.677 34.1ZM157.571 29.18H148.771C148.851 30.2733 149.271 31.16 150.031 31.84C150.791 32.5067 151.751 32.84 152.911 32.84C153.564 32.84 154.164 32.7267 154.711 32.5C155.257 32.26 155.731 31.9133 156.131 31.46L156.931 32.38C156.464 32.94 155.877 33.3667 155.171 33.66C154.477 33.9533 153.711 34.1 152.871 34.1C151.791 34.1 150.831 33.8733 149.991 33.42C149.164 32.9533 148.517 32.3133 148.051 31.5C147.584 30.6867 147.351 29.7667 147.351 28.74C147.351 27.7133 147.571 26.7933 148.011 25.98C148.464 25.1667 149.077 24.5333 149.851 24.08C150.637 23.6267 151.517 23.4 152.491 23.4C153.464 23.4 154.337 23.6267 155.111 24.08C155.884 24.5333 156.491 25.1667 156.931 25.98C157.371 26.78 157.591 27.7 157.591 28.74L157.571 29.18ZM152.491 24.62C151.477 24.62 150.624 24.9467 149.931 25.6C149.251 26.24 148.864 27.08 148.771 28.12H156.231C156.137 27.08 155.744 26.24 155.051 25.6C154.371 24.9467 153.517 24.62 152.491 24.62ZM163.301 34.1C162.448 34.1 161.628 33.98 160.841 33.74C160.068 33.4867 159.461 33.1733 159.021 32.8L159.661 31.68C160.101 32.0267 160.654 32.3133 161.321 32.54C161.988 32.7533 162.681 32.86 163.401 32.86C164.361 32.86 165.068 32.7133 165.521 32.42C165.988 32.1133 166.221 31.6867 166.221 31.14C166.221 30.7533 166.094 30.4533 165.841 30.24C165.588 30.0133 165.268 29.8467 164.881 29.74C164.494 29.62 163.981 29.5067 163.341 29.4C162.488 29.24 161.801 29.08 161.281 28.92C160.761 28.7467 160.314 28.46 159.941 28.06C159.581 27.66 159.401 27.1067 159.401 26.4C159.401 25.52 159.768 24.8 160.501 24.24C161.234 23.68 162.254 23.4 163.561 23.4C164.241 23.4 164.921 23.4933 165.601 23.68C166.281 23.8533 166.841 24.0867 167.281 24.38L166.661 25.52C165.794 24.92 164.761 24.62 163.561 24.62C162.654 24.62 161.968 24.78 161.501 25.1C161.048 25.42 160.821 25.84 160.821 26.36C160.821 26.76 160.948 27.08 161.201 27.32C161.468 27.56 161.794 27.74 162.181 27.86C162.568 27.9667 163.101 28.08 163.781 28.2C164.621 28.36 165.294 28.52 165.801 28.68C166.308 28.84 166.741 29.1133 167.101 29.5C167.461 29.8867 167.641 30.42 167.641 31.1C167.641 32.02 167.254 32.7533 166.481 33.3C165.721 33.8333 164.661 34.1 163.301 34.1Z" fill="white"/>
</svg>
